{"title":"Game of Thrones S04E02 1080p XVID MP3 .AVI","uid":9958577,"size":3253714938,"categoryP":"video","categoryS":"hd___tv_shows","magnet":"?xt=urn:btih:078c25d540869ede8665d52c90bcfd7fd81f73d9&amp;dn=Game+of+Thrones+S04E02+1080p+XVID+MP3+.AVI&amp;tr=udp%3A%2F%2Ftracker.openbittorrent.com%3A80&amp;tr=udp%3A%2F%2Fopen.demonii.com%3A1337&amp;tr=udp%3A%2F%2Ftracker.coppersurfer.tk%3A6969&amp;tr=udp%3A%2F%2Fexodus.desync.com%3A6969","seeders":4,"leechers":0,"uploader":"Danimal1q2w3","files":1,"time":1397481200,"description":"Video\nID                                       : 0\nFormat                                   : MPEG-4 Visual\nFormat profile                           : Simple@L3\nFormat settings, BVOP                    : No\nFormat settings, QPel                    : No\nFormat settings, GMC                     : No warppoints\nFormat settings, Matrix                  : Default (H.263)\nCodec ID                                 : XVID\nCodec ID/Hint                            : XviD\nDuration                                 : 53mn 7s\nBit rate                                 : 7 847 Kbps\nWidth                                    : 1 920 pixels\nHeight                                   : 1 080 pixels\nDisplay aspect ratio                     : 16:9\nOriginal display aspect ratio            : 16:9\nFrame rate                               : 23.976 fps\nColor space                              : YUV\nChroma subsampling                       : 4:2:0\nBit depth                                : 8 bits\nScan type                                : Progressive\nCompression mode                         : Lossy\nBits/(Pixel*Frame)                       : 0.158\nStream size                              : 2.91 GiB (96%)\nWriting library                          : XviD 63\n\nAudio\nID                                       : 1\nFormat                                   : MPEG Audio\nFormat version                           : Version 1\nFormat profile                           : Layer 3\nMode                                     : Joint stereo\nCodec ID                                 : 55\nCodec ID/Hint                            : MP3\nDuration                                 : 53mn 7s\nBit rate mode                            : Variable\nBit rate                                 : 308 Kbps\nChannel(s)                               : 2 channels\nSampling rate                            : 48.0 KHz\nCompression mode                         : Lossy\nStream size                              : 117 MiB (4%)\nAlignment                                : Aligned on interleaves\nInterleave, duration                     : 24 ms (0.58 video frame)\nInterleave, preload duration             : 504 ms","torrent":{"xt":"urn:btih:078c25d540869ede8665d52c90bcfd7fd81f73d9","amp;dn":"Game+of+Thrones+S04E02+1080p+XVID+MP3+.AVI","amp;tr":["udp%3A%2F%2Ftracker.openbittorrent.com%3A80","udp%3A%2F%2Fopen.demonii.com%3A1337","udp%3A%2F%2Ftracker.coppersurfer.tk%3A6969","udp%3A%2F%2Fexodus.desync.com%3A6969"],"infoHash":"078c25d540869ede8665d52c90bcfd7fd81f73d9","infoHashBuffer":{"type":"Buffer","data":[7,140,37,213,64,134,158,222,134,101,213,44,144,188,253,127,216,31,115,217]},"announce":[],"urlList":[]}}